# Blender 3.1.0
# www.blender.org
mtllib untitled.mtl
o Cube
v 3.277793 1.870565 -0.670510
v 3.649340 -1.000000 -1.000000
v 3.277793 1.171709 0.670510
v 3.649340 -1.000000 1.000000
v -3.277793 1.870565 -0.670510
v -3.649340 -1.000000 -1.000000
v -3.277793 1.171709 0.670510
v -3.649340 -1.000000 1.000000
v 3.649340 1.000000 1.000000
v -3.649340 1.000000 1.000000
v 3.649340 2.042274 -1.000000
v -3.649340 2.042274 -1.000000
v 3.277793 0.817578 0.485959
v -3.277793 0.817578 0.485959
v 3.277793 1.516433 -0.855062
v -3.277793 1.516433 -0.855062
v 0.000000 -1.000000 -1.000000
v 0.000000 1.000000 1.000000
v 0.000000 -1.000000 1.000000
v 0.000000 2.042274 -1.000000
v 0.000000 1.171709 0.670510
v 0.000000 1.870565 -0.670510
v 0.000000 0.817578 0.485959
v 0.000000 1.516433 -0.855062
v 1.216447 -1.000000 1.000000
v 2.432894 -1.000000 1.000000
v 1.216447 2.042274 -1.000000
v 2.432894 2.042274 -1.000000
v 1.092598 1.870565 -0.670510
v 2.185195 1.870565 -0.670510
v 1.092598 1.516433 -0.855062
v 2.185195 1.516433 -0.855062
v 2.432894 -1.000000 -1.000000
v 1.216447 -1.000000 -1.000000
v 2.432894 1.000000 1.000000
v 1.216447 1.000000 1.000000
v 2.185195 1.171709 0.670510
v 1.092598 1.171709 0.670510
v 2.185195 0.817578 0.485959
v 1.092598 0.817578 0.485959
v -1.216447 -1.000000 -1.000000
v -2.432894 -1.000000 -1.000000
v -1.216447 1.000000 1.000000
v -2.432894 1.000000 1.000000
v -1.092598 1.171709 0.670510
v -2.185195 1.171709 0.670510
v -1.092598 0.817578 0.485959
v -2.185195 0.817578 0.485959
v -2.432894 -1.000000 1.000000
v -1.216447 -1.000000 1.000000
v -2.432894 2.042274 -1.000000
v -1.216447 2.042274 -1.000000
v -2.185195 1.870565 -0.670510
v -1.092598 1.870565 -0.670510
v -2.185195 1.516433 -0.855062
v -1.092598 1.516433 -0.855062
vn -1.0000 -0.0000 -0.0000
vn -0.0000 -0.0000 1.0000
vn -0.0000 -1.0000 -0.0000
vn 1.0000 -0.0000 -0.0000
vn -0.0000 -0.0000 -1.0000
vn -0.0000 0.8868 0.4621
vn -0.0000 0.4621 -0.8868
vn -0.0000 -0.4621 0.8868
vt 0.637727 0.541186
vt 0.375000 0.500000
vt 0.637727 0.708814
vt 0.375000 0.750000
vt 0.862273 0.541186
vt 0.125000 0.500000
vt 0.375000 0.250000
vt 0.862273 0.708814
vt 0.375000 1.000000
vt 0.375000 0.000000
vt 0.125000 0.750000
vt 0.625000 0.750000
vt 0.625000 1.000000
vt 0.625000 0.000000
vt 0.875000 0.750000
vt 0.625000 0.500000
vt 0.625000 0.250000
vt 0.875000 0.500000
vt 0.637727 0.708814
vt 0.862273 0.708814
vt 0.637727 0.541186
vt 0.862273 0.541186
vt 0.375000 0.375000
vt 0.250000 0.500000
vt 0.750000 0.750000
vt 0.625000 0.875000
vt 0.250000 0.750000
vt 0.375000 0.875000
vt 0.750000 0.500000
vt 0.625000 0.375000
vt 0.750000 0.708814
vt 0.750000 0.541186
vt 0.750000 0.708814
vt 0.750000 0.541186
vt 0.375000 0.833333
vt 0.291667 0.750000
vt 0.375000 0.791667
vt 0.333333 0.750000
vt 0.708333 0.500000
vt 0.625000 0.416667
vt 0.666667 0.500000
vt 0.625000 0.458333
vt 0.712575 0.541186
vt 0.675151 0.541186
vt 0.712575 0.541186
vt 0.675151 0.541186
vt 0.375000 0.458333
vt 0.333333 0.500000
vt 0.375000 0.416667
vt 0.291667 0.500000
vt 0.625000 0.791667
vt 0.666667 0.750000
vt 0.625000 0.833333
vt 0.708333 0.750000
vt 0.675151 0.708814
vt 0.712575 0.708814
vt 0.675151 0.708814
vt 0.712575 0.708814
vt 0.208333 0.500000
vt 0.375000 0.333333
vt 0.166667 0.500000
vt 0.375000 0.291667
vt 0.791667 0.750000
vt 0.625000 0.916667
vt 0.833333 0.750000
vt 0.625000 0.958333
vt 0.787424 0.708814
vt 0.824849 0.708814
vt 0.787424 0.708814
vt 0.824849 0.708814
vt 0.166667 0.750000
vt 0.375000 0.958333
vt 0.208333 0.750000
vt 0.375000 0.916667
vt 0.625000 0.291667
vt 0.833333 0.500000
vt 0.625000 0.333333
vt 0.791667 0.500000
vt 0.824849 0.541186
vt 0.787424 0.541186
vt 0.824849 0.541186
vt 0.787424 0.541186
s 0
usemtl Material
f 3/3/1 1/1/1 15/21/1 13/19/1
f 49/72/2 44/66/2 10/13/2 8/9/2
f 8/10/1 10/14/1 12/17/1 6/7/1
f 33/48/3 2/2/3 4/4/3 26/38/3
f 2/2/4 11/16/4 9/12/4 4/4/4
f 33/47/5 28/42/5 11/16/5 2/2/5
f 46/68/6 7/8/6 10/15/6 44/65/6
f 1/1/6 3/3/6 9/12/6 11/16/6
f 7/8/6 5/5/6 12/18/6 10/15/6
f 30/44/6 1/1/6 11/16/6 28/41/6
f 55/81/6 16/22/6 14/20/6 48/70/6
f 5/5/4 7/8/4 14/20/4 16/22/4
f 37/55/7 3/3/7 13/19/7 39/57/7
f 53/79/8 5/5/8 16/22/8 55/81/8
f 29/43/8 22/32/8 24/34/8 31/45/8
f 45/67/7 21/31/7 23/33/7 47/69/7
f 31/45/6 24/34/6 23/33/6 40/58/6
f 54/80/6 22/32/6 20/29/6 52/78/6
f 38/56/6 21/31/6 18/25/6 36/54/6
f 41/60/5 52/77/5 20/30/5 17/23/5
f 41/59/3 17/24/3 19/27/3 50/73/3
f 25/35/2 36/53/2 18/26/2 19/28/2
f 4/4/2 9/12/2 35/51/2 26/37/2
f 26/37/2 35/51/2 36/53/2 25/35/2
f 3/3/6 37/55/6 35/52/6 9/12/6
f 37/55/6 38/56/6 36/54/6 35/52/6
f 15/21/6 32/46/6 39/57/6 13/19/6
f 32/46/6 31/45/6 40/58/6 39/57/6
f 1/1/8 30/44/8 32/46/8 15/21/8
f 30/44/8 29/43/8 31/45/8 32/46/8
f 21/31/7 38/56/7 40/58/7 23/33/7
f 38/56/7 37/55/7 39/57/7 40/58/7
f 22/32/6 29/43/6 27/39/6 20/29/6
f 29/43/6 30/44/6 28/41/6 27/39/6
f 17/23/5 20/30/5 27/40/5 34/49/5
f 34/49/5 27/40/5 28/42/5 33/47/5
f 17/24/3 34/50/3 25/36/3 19/27/3
f 34/50/3 33/48/3 26/38/3 25/36/3
f 6/6/3 42/61/3 49/71/3 8/11/3
f 42/61/3 41/59/3 50/73/3 49/71/3
f 6/7/5 12/17/5 51/75/5 42/62/5
f 42/62/5 51/75/5 52/77/5 41/60/5
f 5/5/6 53/79/6 51/76/6 12/18/6
f 53/79/6 54/80/6 52/78/6 51/76/6
f 7/8/7 46/68/7 48/70/7 14/20/7
f 46/68/7 45/67/7 47/69/7 48/70/7
f 22/32/8 54/80/8 56/82/8 24/34/8
f 54/80/8 53/79/8 55/81/8 56/82/8
f 24/34/6 56/82/6 47/69/6 23/33/6
f 56/82/6 55/81/6 48/70/6 47/69/6
f 21/31/6 45/67/6 43/63/6 18/25/6
f 45/67/6 46/68/6 44/65/6 43/63/6
f 19/28/2 18/26/2 43/64/2 50/74/2
f 50/74/2 43/64/2 44/66/2 49/72/2
